# xmcd CD database file
#
# Track frame offsets:
#	150
#	19681
#	42480
#	75879
#	103376
#	117176
#	131834
#	147712
#	163469
#	188157
#	203387
#	218323
#	235680
#	257636
#
# Disc length: 3627 seconds
#
# Revision: 0
# Processed by: cddbd v1.5.1PL2 Copyright (c) Steve Scherf et al.
# Submitted via: CDex 1.51
#
DISCID=c00e290e
DTITLE=Compay Segundo, Ry Cooder - Buena vista social club
DYEAR=1997
DGENRE=Salsa
TTITLE0=Chan chan
TTITLE1=De camio a la vereda
TTITLE2=El cuarto de tula
TTITLE3=Pueblo nuevo
TTITLE4=Dos gardenias
TTITLE5=Y tu que has hecho?
TTITLE6=Veinte anos
TTITLE7=El carratero
TTITLE8=Candela
TTITLE9=Amor de loca juventud
TTITLE10=Orgellucida
TTITLE11=Murmullo
TTITLE12=Buena vista social club
TTITLE13=La bayamesa
EXTD=YEAR: 1997
EXTT0=
EXTT1=
EXTT2=
EXTT3=
EXTT4=
EXTT5=
EXTT6=
EXTT7=
EXTT8=
EXTT9=
EXTT10=
EXTT11=
EXTT12=
EXTT13=
PLAYORDER=
